# xmcd
#
# Track frame offsets: 
#        150
#        11933
#        25640
#        40178
#        52243
#        68373
#        83320
#        97488
#        108973
#        126533
#        136885
#        152453
#        163435
#        178793
#
# Disc length: 2570 seconds
#
# Revision: 11
# Processed by: cddbd v1.5.2PL0 Copyright (c) Steve Scherf et al.
# Submitted via: ExactAudioCopyFreeDBPlugin 1.0
#
DISCID=ba0a080e
DTITLE=J. J. Cale - Travel-Log
DYEAR=1989
DGENRE=Blues-Rock
TTITLE0=Shanghaid
TTITLE1=Hold On Baby
TTITLE2=No Time
TTITLE3=Lady Luck
TTITLE4=Disadvantage
TTITLE5=Lean On Me
TTITLE6=End Of The Line
TTITLE7=New Orleans
TTITLE8=Tijuana
TTITLE9=That Kind Of Thing
TTITLE10=Who's Talking
TTITLE11=Change Your Mind
TTITLE12=Humdinger
TTITLE13=River Boat Song
EXTD=Silvertone Records\nORE CD 507
EXTT0=
EXTT1=
EXTT2=
EXTT3=
EXTT4=
EXTT5=
EXTT6=
EXTT7=
EXTT8=
EXTT9=
EXTT10=
EXTT11=
EXTT12=
EXTT13=
PLAYORDER=
